<svg width="347" height="501" viewBox="0 0 347 501" fill="none" xmlns="http://www.w3.org/2000/svg">
<path fill-rule="evenodd" clip-rule="evenodd" d="M144.5 1.19601C122.226 5.20701 107.8 13.062 91.839 29.868C72.68 50.042 62.171 75.797 56.999 115.251C55.986 122.981 55.498 135.507 55.493 153.888C55.489 168.848 55.199 184.125 54.848 187.837L54.211 194.587H27.355H0.5V201.087V207.587L27.355 207.566L54.5 207.587V347.587V487.587H34.5H12.5V494.087V500.587H52.481H92.462H190.5V487.587C192 487.587 101.493 487.587 101.493 487.587L100.985 453.087L101.493 330.587L102 208.087L146.25 207.827H162.5L190.5 207.566V354.077V500.587H243H295.5V494.087V487.587H266.5H252.5H237.5V348.087V208.587H290.074H324.5V201.087V194.587H290.442H237.384L237.723 135.837C238.055 78.394 238.112 76.941 240.267 70.515C244.476 57.962 253.701 46.677 263.378 42.244C266.926 40.618 269.993 40.121 276.574 40.106C284.397 40.089 285.579 40.353 290.074 43.128C296.547 47.124 299.794 52.88 299.898 60.543C299.966 65.489 299.575 66.673 296.738 70.115C294.957 72.275 293.5 74.675 293.5 75.449C293.5 79.318 296.321 85.284 300.181 89.577C312.63 103.423 336.087 100.455 344.507 83.97C346.647 79.778 347 77.742 347 69.587C347 58.03 344.837 52.853 336.684 44.903C320.123 28.752 282.48 26.076 254.054 39.031C233.953 48.191 216.12 67.128 204.818 91.314C194.651 113.07 190.549 136.888 190.517 174.347L190.5 194.608L146.25 194.347L102 194.087L101.722 131.587C101.436 67.386 101.941 54.754 105.301 42.043C110.643 21.834 125.745 7.57502 141.788 7.59302C148.979 7.60002 153.331 8.994 157.879 12.746C166.505 19.861 168.197 34.614 161.066 40.532C157.078 43.842 160.595 54.944 167.505 60.859C178.957 70.661 196.431 69.288 206.552 57.791C216.774 46.178 215.695 27.447 204.07 14.728C199.695 9.94099 194.672 6.97501 185.769 3.92001C178.858 1.54801 176.288 1.226 162.5 0.999998C153.975 0.859998 145.875 0.948012 144.5 1.19601Z" fill="white"/>
</svg>
